<mxfile host="app.diagrams.net" modified="2024-01-17T07:22:49.625Z" agent="Mozilla/5.0 (Windows NT 10.0; Win64; x64) AppleWebKit/537.36 (KHTML, like Gecko) Chrome/120.0.0.0 Safari/537.36" version="22.1.20" etag="QkiP0Wla3Nx2_4-6e98G" type="github">
  <diagram name="第 1 页" id="b6APiA5UhrIZJKHs7HBn">
    <mxGraphModel>
      <root>
        <mxCell id="0" />
        <mxCell id="1" parent="0" />
      </root>
    </mxGraphModel>
  </diagram>
</mxfile>
